<svg width="109" height="31" viewBox="0 0 109 31" fill="none" xmlns="http://www.w3.org/2000/svg">
<path d="M6.27 25V9.49H0.12V4H19.5V9.49H13.35V25H6.27ZM20.8359 25V8.59H27.2859V13.54L26.2359 12.13C26.7359 10.85 27.5359 9.89 28.6359 9.25C29.7359 8.61 31.0559 8.29 32.5959 8.29V14.29C32.2959 14.25 32.0259 14.22 31.7859 14.2C31.5659 14.18 31.3359 14.17 31.0959 14.17C30.0759 14.17 29.2359 14.44 28.5759 14.98C27.9359 15.5 27.6159 16.41 27.6159 17.71V25H20.8359ZM34.5176 25V8.59H41.2976V25H34.5176ZM37.9076 7.27C36.6676 7.27 35.6776 6.94 34.9376 6.28C34.1976 5.62 33.8276 4.8 33.8276 3.82C33.8276 2.84 34.1976 2.02 34.9376 1.36C35.6776 0.699999 36.6676 0.369999 37.9076 0.369999C39.1476 0.369999 40.1376 0.679999 40.8776 1.3C41.6176 1.92 41.9876 2.72 41.9876 3.7C41.9876 4.74 41.6176 5.6 40.8776 6.28C40.1376 6.94 39.1476 7.27 37.9076 7.27ZM55.2527 25.3C53.8327 25.3 52.6527 25 51.7127 24.4C50.7927 23.78 50.1127 22.85 49.6727 21.61C49.2327 20.35 49.0127 18.75 49.0127 16.81C49.0127 14.83 49.2127 13.22 49.6127 11.98C50.0327 10.72 50.7027 9.79 51.6227 9.19C52.5427 8.59 53.7527 8.29 55.2527 8.29C56.6927 8.29 58.0127 8.64 59.2127 9.34C60.4127 10.02 61.3727 11 62.0927 12.28C62.8127 13.54 63.1727 15.05 63.1727 16.81C63.1727 18.57 62.8127 20.09 62.0927 21.37C61.3727 22.63 60.4127 23.6 59.2127 24.28C58.0127 24.96 56.6927 25.3 55.2527 25.3ZM44.3027 30.82V8.59H50.7527V10.81L50.7827 16.81L51.0827 22.81V30.82H44.3027ZM53.6327 20.02C54.1327 20.02 54.5827 19.9 54.9827 19.66C55.3827 19.42 55.7027 19.06 55.9427 18.58C56.1827 18.1 56.3027 17.51 56.3027 16.81C56.3027 16.09 56.1827 15.49 55.9427 15.01C55.7027 14.53 55.3827 14.17 54.9827 13.93C54.5827 13.69 54.1327 13.57 53.6327 13.57C53.1327 13.57 52.6827 13.69 52.2827 13.93C51.8827 14.17 51.5627 14.53 51.3227 15.01C51.0827 15.49 50.9627 16.09 50.9627 16.81C50.9627 17.51 51.0827 18.1 51.3227 18.58C51.5627 19.06 51.8827 19.42 52.2827 19.66C52.6827 19.9 53.1327 20.02 53.6327 20.02ZM81.9306 25H73.9746L70.2006 9.394L66.8686 25H63.8086L68.3986 3.41H76.5246L80.0946 19.22L83.4606 3.41H86.5886L81.9306 25ZM103.811 25H95.8555L92.0815 9.394L88.7495 25H85.6895L90.2795 3.41H98.4055L101.975 19.22L105.341 3.41H108.469L103.811 25Z" fill="white"/>
</svg>
